<mxfile host="app.diagrams.net" agent="Mozilla/5.0 (Macintosh; Intel Mac OS X 10_15_7) AppleWebKit/537.36 (KHTML, like Gecko) Chrome/139.0.0.0 Safari/537.36" version="28.1.1">
  <diagram name="Page-1" id="0AWGQivoWVd1sFgXLCKr">
    <mxGraphModel dx="885" dy="599" grid="1" gridSize="10" guides="1" tooltips="1" connect="1" arrows="1" fold="1" page="1" pageScale="1" pageWidth="850" pageHeight="1100" math="0" shadow="0">
      <root>
        <mxCell id="0" />
        <mxCell id="1" parent="0" />
        <mxCell id="xdPJUQHF0rRDcSB4H9Dn-43" style="edgeStyle=orthogonalEdgeStyle;rounded=0;orthogonalLoop=1;jettySize=auto;html=1;entryX=0;entryY=0.5;entryDx=0;entryDy=0;endArrow=none;endFill=0;" edge="1" parent="1" source="xdPJUQHF0rRDcSB4H9Dn-1" target="xdPJUQHF0rRDcSB4H9Dn-8">
          <mxGeometry relative="1" as="geometry" />
        </mxCell>
        <mxCell id="xdPJUQHF0rRDcSB4H9Dn-44" value="Study" style="edgeLabel;html=1;align=center;verticalAlign=middle;resizable=0;points=[];" vertex="1" connectable="0" parent="xdPJUQHF0rRDcSB4H9Dn-43">
          <mxGeometry x="-0.0893" y="-1" relative="1" as="geometry">
            <mxPoint as="offset" />
          </mxGeometry>
        </mxCell>
        <mxCell id="xdPJUQHF0rRDcSB4H9Dn-46" value="0..*" style="edgeLabel;html=1;align=center;verticalAlign=middle;resizable=0;points=[];" vertex="1" connectable="0" parent="xdPJUQHF0rRDcSB4H9Dn-43">
          <mxGeometry x="0.8954" relative="1" as="geometry">
            <mxPoint x="-6" y="-11" as="offset" />
          </mxGeometry>
        </mxCell>
        <mxCell id="xdPJUQHF0rRDcSB4H9Dn-47" value="0..*" style="edgeLabel;html=1;align=center;verticalAlign=middle;resizable=0;points=[];" vertex="1" connectable="0" parent="xdPJUQHF0rRDcSB4H9Dn-43">
          <mxGeometry x="-0.8626" relative="1" as="geometry">
            <mxPoint x="20" as="offset" />
          </mxGeometry>
        </mxCell>
        <mxCell id="xdPJUQHF0rRDcSB4H9Dn-1" value="Student" style="swimlane;fontStyle=1;align=center;verticalAlign=middle;childLayout=stackLayout;horizontal=1;startSize=29;horizontalStack=0;resizeParent=1;resizeParentMax=0;resizeLast=0;collapsible=0;marginBottom=0;html=1;whiteSpace=wrap;" vertex="1" parent="1">
          <mxGeometry x="480" y="840" width="140" height="229" as="geometry" />
        </mxCell>
        <mxCell id="xdPJUQHF0rRDcSB4H9Dn-3" value="id" style="text;html=1;strokeColor=none;fillColor=none;align=left;verticalAlign=middle;spacingLeft=4;spacingRight=4;overflow=hidden;rotatable=0;points=[[0,0.5],[1,0.5]];portConstraint=eastwest;whiteSpace=wrap;" vertex="1" parent="xdPJUQHF0rRDcSB4H9Dn-1">
          <mxGeometry y="29" width="140" height="25" as="geometry" />
        </mxCell>
        <mxCell id="xdPJUQHF0rRDcSB4H9Dn-16" value="name" style="text;html=1;strokeColor=none;fillColor=none;align=left;verticalAlign=middle;spacingLeft=4;spacingRight=4;overflow=hidden;rotatable=0;points=[[0,0.5],[1,0.5]];portConstraint=eastwest;whiteSpace=wrap;" vertex="1" parent="xdPJUQHF0rRDcSB4H9Dn-1">
          <mxGeometry y="54" width="140" height="25" as="geometry" />
        </mxCell>
        <mxCell id="xdPJUQHF0rRDcSB4H9Dn-13" value="viewProfile()" style="text;html=1;strokeColor=none;fillColor=none;align=left;verticalAlign=middle;spacingLeft=4;spacingRight=4;overflow=hidden;rotatable=0;points=[[0,0.5],[1,0.5]];portConstraint=eastwest;whiteSpace=wrap;" vertex="1" parent="xdPJUQHF0rRDcSB4H9Dn-1">
          <mxGeometry y="79" width="140" height="25" as="geometry" />
        </mxCell>
        <mxCell id="xdPJUQHF0rRDcSB4H9Dn-14" value="updateProfile()" style="text;html=1;strokeColor=none;fillColor=none;align=left;verticalAlign=middle;spacingLeft=4;spacingRight=4;overflow=hidden;rotatable=0;points=[[0,0.5],[1,0.5]];portConstraint=eastwest;whiteSpace=wrap;" vertex="1" parent="xdPJUQHF0rRDcSB4H9Dn-1">
          <mxGeometry y="104" width="140" height="25" as="geometry" />
        </mxCell>
        <mxCell id="xdPJUQHF0rRDcSB4H9Dn-12" value="enrollCourse()" style="text;html=1;strokeColor=none;fillColor=none;align=left;verticalAlign=middle;spacingLeft=4;spacingRight=4;overflow=hidden;rotatable=0;points=[[0,0.5],[1,0.5]];portConstraint=eastwest;whiteSpace=wrap;" vertex="1" parent="xdPJUQHF0rRDcSB4H9Dn-1">
          <mxGeometry y="129" width="140" height="25" as="geometry" />
        </mxCell>
        <mxCell id="xdPJUQHF0rRDcSB4H9Dn-15" value="widthdrawCourse()" style="text;html=1;strokeColor=none;fillColor=none;align=left;verticalAlign=middle;spacingLeft=4;spacingRight=4;overflow=hidden;rotatable=0;points=[[0,0.5],[1,0.5]];portConstraint=eastwest;whiteSpace=wrap;" vertex="1" parent="xdPJUQHF0rRDcSB4H9Dn-1">
          <mxGeometry y="154" width="140" height="25" as="geometry" />
        </mxCell>
        <mxCell id="xdPJUQHF0rRDcSB4H9Dn-19" value="viewAttendance()" style="text;html=1;strokeColor=none;fillColor=none;align=left;verticalAlign=middle;spacingLeft=4;spacingRight=4;overflow=hidden;rotatable=0;points=[[0,0.5],[1,0.5]];portConstraint=eastwest;whiteSpace=wrap;" vertex="1" parent="xdPJUQHF0rRDcSB4H9Dn-1">
          <mxGeometry y="179" width="140" height="25" as="geometry" />
        </mxCell>
        <mxCell id="xdPJUQHF0rRDcSB4H9Dn-20" value="viewGrade()" style="text;html=1;strokeColor=none;fillColor=none;align=left;verticalAlign=middle;spacingLeft=4;spacingRight=4;overflow=hidden;rotatable=0;points=[[0,0.5],[1,0.5]];portConstraint=eastwest;whiteSpace=wrap;" vertex="1" parent="xdPJUQHF0rRDcSB4H9Dn-1">
          <mxGeometry y="204" width="140" height="25" as="geometry" />
        </mxCell>
        <mxCell id="xdPJUQHF0rRDcSB4H9Dn-7" value="Course" style="swimlane;fontStyle=1;align=center;verticalAlign=middle;childLayout=stackLayout;horizontal=1;startSize=29;horizontalStack=0;resizeParent=1;resizeParentMax=0;resizeLast=0;collapsible=0;marginBottom=0;html=1;whiteSpace=wrap;" vertex="1" parent="1">
          <mxGeometry x="730" y="1120" width="140" height="79" as="geometry" />
        </mxCell>
        <mxCell id="xdPJUQHF0rRDcSB4H9Dn-8" value="id" style="text;html=1;strokeColor=none;fillColor=none;align=left;verticalAlign=middle;spacingLeft=4;spacingRight=4;overflow=hidden;rotatable=0;points=[[0,0.5],[1,0.5]];portConstraint=eastwest;whiteSpace=wrap;" vertex="1" parent="xdPJUQHF0rRDcSB4H9Dn-7">
          <mxGeometry y="29" width="140" height="25" as="geometry" />
        </mxCell>
        <mxCell id="xdPJUQHF0rRDcSB4H9Dn-17" value="name" style="text;html=1;strokeColor=none;fillColor=none;align=left;verticalAlign=middle;spacingLeft=4;spacingRight=4;overflow=hidden;rotatable=0;points=[[0,0.5],[1,0.5]];portConstraint=eastwest;whiteSpace=wrap;" vertex="1" parent="xdPJUQHF0rRDcSB4H9Dn-7">
          <mxGeometry y="54" width="140" height="25" as="geometry" />
        </mxCell>
        <mxCell id="xdPJUQHF0rRDcSB4H9Dn-42" style="edgeStyle=orthogonalEdgeStyle;rounded=0;orthogonalLoop=1;jettySize=auto;html=1;entryX=1;entryY=0.5;entryDx=0;entryDy=0;endArrow=none;endFill=0;" edge="1" parent="1" source="xdPJUQHF0rRDcSB4H9Dn-9" target="xdPJUQHF0rRDcSB4H9Dn-8">
          <mxGeometry relative="1" as="geometry" />
        </mxCell>
        <mxCell id="xdPJUQHF0rRDcSB4H9Dn-45" value="Teach" style="edgeLabel;html=1;align=center;verticalAlign=middle;resizable=0;points=[];" vertex="1" connectable="0" parent="xdPJUQHF0rRDcSB4H9Dn-42">
          <mxGeometry x="0.2014" y="-1" relative="1" as="geometry">
            <mxPoint as="offset" />
          </mxGeometry>
        </mxCell>
        <mxCell id="xdPJUQHF0rRDcSB4H9Dn-48" value="0..*" style="edgeLabel;html=1;align=center;verticalAlign=middle;resizable=0;points=[];" vertex="1" connectable="0" parent="xdPJUQHF0rRDcSB4H9Dn-42">
          <mxGeometry x="0.9026" y="-2" relative="1" as="geometry">
            <mxPoint x="3" y="-9" as="offset" />
          </mxGeometry>
        </mxCell>
        <mxCell id="xdPJUQHF0rRDcSB4H9Dn-49" value="0..*" style="edgeLabel;html=1;align=center;verticalAlign=middle;resizable=0;points=[];" vertex="1" connectable="0" parent="xdPJUQHF0rRDcSB4H9Dn-42">
          <mxGeometry x="-0.8974" relative="1" as="geometry">
            <mxPoint x="-20" as="offset" />
          </mxGeometry>
        </mxCell>
        <mxCell id="xdPJUQHF0rRDcSB4H9Dn-9" value="Lecturer" style="swimlane;fontStyle=1;align=center;verticalAlign=middle;childLayout=stackLayout;horizontal=1;startSize=29;horizontalStack=0;resizeParent=1;resizeParentMax=0;resizeLast=0;collapsible=0;marginBottom=0;html=1;whiteSpace=wrap;" vertex="1" parent="1">
          <mxGeometry x="1010" y="840" width="140" height="179" as="geometry" />
        </mxCell>
        <mxCell id="xdPJUQHF0rRDcSB4H9Dn-18" value="id" style="text;html=1;strokeColor=none;fillColor=none;align=left;verticalAlign=middle;spacingLeft=4;spacingRight=4;overflow=hidden;rotatable=0;points=[[0,0.5],[1,0.5]];portConstraint=eastwest;whiteSpace=wrap;" vertex="1" parent="xdPJUQHF0rRDcSB4H9Dn-9">
          <mxGeometry y="29" width="140" height="25" as="geometry" />
        </mxCell>
        <mxCell id="xdPJUQHF0rRDcSB4H9Dn-10" value="name" style="text;html=1;strokeColor=none;fillColor=none;align=left;verticalAlign=middle;spacingLeft=4;spacingRight=4;overflow=hidden;rotatable=0;points=[[0,0.5],[1,0.5]];portConstraint=eastwest;whiteSpace=wrap;" vertex="1" parent="xdPJUQHF0rRDcSB4H9Dn-9">
          <mxGeometry y="54" width="140" height="25" as="geometry" />
        </mxCell>
        <mxCell id="xdPJUQHF0rRDcSB4H9Dn-11" value="viewProfile()" style="text;html=1;strokeColor=none;fillColor=none;align=left;verticalAlign=middle;spacingLeft=4;spacingRight=4;overflow=hidden;rotatable=0;points=[[0,0.5],[1,0.5]];portConstraint=eastwest;whiteSpace=wrap;" vertex="1" parent="xdPJUQHF0rRDcSB4H9Dn-9">
          <mxGeometry y="79" width="140" height="25" as="geometry" />
        </mxCell>
        <mxCell id="xdPJUQHF0rRDcSB4H9Dn-23" value="updateProfile()" style="text;html=1;strokeColor=none;fillColor=none;align=left;verticalAlign=middle;spacingLeft=4;spacingRight=4;overflow=hidden;rotatable=0;points=[[0,0.5],[1,0.5]];portConstraint=eastwest;whiteSpace=wrap;" vertex="1" parent="xdPJUQHF0rRDcSB4H9Dn-9">
          <mxGeometry y="104" width="140" height="25" as="geometry" />
        </mxCell>
        <mxCell id="xdPJUQHF0rRDcSB4H9Dn-22" value="markAttendance()" style="text;html=1;strokeColor=none;fillColor=none;align=left;verticalAlign=middle;spacingLeft=4;spacingRight=4;overflow=hidden;rotatable=0;points=[[0,0.5],[1,0.5]];portConstraint=eastwest;whiteSpace=wrap;" vertex="1" parent="xdPJUQHF0rRDcSB4H9Dn-9">
          <mxGeometry y="129" width="140" height="25" as="geometry" />
        </mxCell>
        <mxCell id="xdPJUQHF0rRDcSB4H9Dn-24" value="assignGrade()" style="text;html=1;strokeColor=none;fillColor=none;align=left;verticalAlign=middle;spacingLeft=4;spacingRight=4;overflow=hidden;rotatable=0;points=[[0,0.5],[1,0.5]];portConstraint=eastwest;whiteSpace=wrap;" vertex="1" parent="xdPJUQHF0rRDcSB4H9Dn-9">
          <mxGeometry y="154" width="140" height="25" as="geometry" />
        </mxCell>
        <mxCell id="xdPJUQHF0rRDcSB4H9Dn-25" value="Administrator" style="swimlane;fontStyle=1;align=center;verticalAlign=middle;childLayout=stackLayout;horizontal=1;startSize=29;horizontalStack=0;resizeParent=1;resizeParentMax=0;resizeLast=0;collapsible=0;marginBottom=0;html=1;whiteSpace=wrap;" vertex="1" parent="1">
          <mxGeometry x="715" y="715" width="170" height="354" as="geometry" />
        </mxCell>
        <mxCell id="xdPJUQHF0rRDcSB4H9Dn-26" value="id" style="text;html=1;strokeColor=none;fillColor=none;align=left;verticalAlign=middle;spacingLeft=4;spacingRight=4;overflow=hidden;rotatable=0;points=[[0,0.5],[1,0.5]];portConstraint=eastwest;whiteSpace=wrap;" vertex="1" parent="xdPJUQHF0rRDcSB4H9Dn-25">
          <mxGeometry y="29" width="170" height="25" as="geometry" />
        </mxCell>
        <mxCell id="xdPJUQHF0rRDcSB4H9Dn-28" value="registerStudent()" style="text;html=1;strokeColor=none;fillColor=none;align=left;verticalAlign=middle;spacingLeft=4;spacingRight=4;overflow=hidden;rotatable=0;points=[[0,0.5],[1,0.5]];portConstraint=eastwest;whiteSpace=wrap;" vertex="1" parent="xdPJUQHF0rRDcSB4H9Dn-25">
          <mxGeometry y="54" width="170" height="25" as="geometry" />
        </mxCell>
        <mxCell id="xdPJUQHF0rRDcSB4H9Dn-29" value="updateStudent()" style="text;html=1;strokeColor=none;fillColor=none;align=left;verticalAlign=middle;spacingLeft=4;spacingRight=4;overflow=hidden;rotatable=0;points=[[0,0.5],[1,0.5]];portConstraint=eastwest;whiteSpace=wrap;" vertex="1" parent="xdPJUQHF0rRDcSB4H9Dn-25">
          <mxGeometry y="79" width="170" height="25" as="geometry" />
        </mxCell>
        <mxCell id="xdPJUQHF0rRDcSB4H9Dn-33" value="deleteStudent()" style="text;html=1;strokeColor=none;fillColor=none;align=left;verticalAlign=middle;spacingLeft=4;spacingRight=4;overflow=hidden;rotatable=0;points=[[0,0.5],[1,0.5]];portConstraint=eastwest;whiteSpace=wrap;" vertex="1" parent="xdPJUQHF0rRDcSB4H9Dn-25">
          <mxGeometry y="104" width="170" height="25" as="geometry" />
        </mxCell>
        <mxCell id="xdPJUQHF0rRDcSB4H9Dn-35" value="deleteLecturer()" style="text;html=1;strokeColor=none;fillColor=none;align=left;verticalAlign=middle;spacingLeft=4;spacingRight=4;overflow=hidden;rotatable=0;points=[[0,0.5],[1,0.5]];portConstraint=eastwest;whiteSpace=wrap;" vertex="1" parent="xdPJUQHF0rRDcSB4H9Dn-25">
          <mxGeometry y="129" width="170" height="25" as="geometry" />
        </mxCell>
        <mxCell id="xdPJUQHF0rRDcSB4H9Dn-36" value="updateLecturer()" style="text;html=1;strokeColor=none;fillColor=none;align=left;verticalAlign=middle;spacingLeft=4;spacingRight=4;overflow=hidden;rotatable=0;points=[[0,0.5],[1,0.5]];portConstraint=eastwest;whiteSpace=wrap;" vertex="1" parent="xdPJUQHF0rRDcSB4H9Dn-25">
          <mxGeometry y="154" width="170" height="25" as="geometry" />
        </mxCell>
        <mxCell id="xdPJUQHF0rRDcSB4H9Dn-34" value="registerLecturer()" style="text;html=1;strokeColor=none;fillColor=none;align=left;verticalAlign=middle;spacingLeft=4;spacingRight=4;overflow=hidden;rotatable=0;points=[[0,0.5],[1,0.5]];portConstraint=eastwest;whiteSpace=wrap;" vertex="1" parent="xdPJUQHF0rRDcSB4H9Dn-25">
          <mxGeometry y="179" width="170" height="25" as="geometry" />
        </mxCell>
        <mxCell id="xdPJUQHF0rRDcSB4H9Dn-30" value="createCourse()" style="text;html=1;strokeColor=none;fillColor=none;align=left;verticalAlign=middle;spacingLeft=4;spacingRight=4;overflow=hidden;rotatable=0;points=[[0,0.5],[1,0.5]];portConstraint=eastwest;whiteSpace=wrap;" vertex="1" parent="xdPJUQHF0rRDcSB4H9Dn-25">
          <mxGeometry y="204" width="170" height="25" as="geometry" />
        </mxCell>
        <mxCell id="xdPJUQHF0rRDcSB4H9Dn-31" value="updateCourse()" style="text;html=1;strokeColor=none;fillColor=none;align=left;verticalAlign=middle;spacingLeft=4;spacingRight=4;overflow=hidden;rotatable=0;points=[[0,0.5],[1,0.5]];portConstraint=eastwest;whiteSpace=wrap;" vertex="1" parent="xdPJUQHF0rRDcSB4H9Dn-25">
          <mxGeometry y="229" width="170" height="25" as="geometry" />
        </mxCell>
        <mxCell id="xdPJUQHF0rRDcSB4H9Dn-32" value="deleteCourse()" style="text;html=1;strokeColor=none;fillColor=none;align=left;verticalAlign=middle;spacingLeft=4;spacingRight=4;overflow=hidden;rotatable=0;points=[[0,0.5],[1,0.5]];portConstraint=eastwest;whiteSpace=wrap;" vertex="1" parent="xdPJUQHF0rRDcSB4H9Dn-25">
          <mxGeometry y="254" width="170" height="25" as="geometry" />
        </mxCell>
        <mxCell id="xdPJUQHF0rRDcSB4H9Dn-37" value="generateReportAttendance()" style="text;html=1;strokeColor=none;fillColor=none;align=left;verticalAlign=middle;spacingLeft=4;spacingRight=4;overflow=hidden;rotatable=0;points=[[0,0.5],[1,0.5]];portConstraint=eastwest;whiteSpace=wrap;" vertex="1" parent="xdPJUQHF0rRDcSB4H9Dn-25">
          <mxGeometry y="279" width="170" height="25" as="geometry" />
        </mxCell>
        <mxCell id="xdPJUQHF0rRDcSB4H9Dn-38" value="generateReportGrade()" style="text;html=1;strokeColor=none;fillColor=none;align=left;verticalAlign=middle;spacingLeft=4;spacingRight=4;overflow=hidden;rotatable=0;points=[[0,0.5],[1,0.5]];portConstraint=eastwest;whiteSpace=wrap;" vertex="1" parent="xdPJUQHF0rRDcSB4H9Dn-25">
          <mxGeometry y="304" width="170" height="25" as="geometry" />
        </mxCell>
        <mxCell id="xdPJUQHF0rRDcSB4H9Dn-39" value="generateReportEnrollment()" style="text;html=1;strokeColor=none;fillColor=none;align=left;verticalAlign=middle;spacingLeft=4;spacingRight=4;overflow=hidden;rotatable=0;points=[[0,0.5],[1,0.5]];portConstraint=eastwest;whiteSpace=wrap;" vertex="1" parent="xdPJUQHF0rRDcSB4H9Dn-25">
          <mxGeometry y="329" width="170" height="25" as="geometry" />
        </mxCell>
      </root>
    </mxGraphModel>
  </diagram>
</mxfile>
